<mxfile host="app.diagrams.net" agent="Mozilla/5.0 (Windows NT 10.0; Win64; x64) AppleWebKit/537.36 (KHTML, like Gecko) Chrome/136.0.0.0 Safari/537.36" version="27.0.9">
  <diagram name="Страница — 1" id="q8ZDGUzupagNcR0ijYZk">
    <mxGraphModel dx="2253" dy="1946" grid="1" gridSize="10" guides="1" tooltips="1" connect="1" arrows="1" fold="1" page="1" pageScale="1" pageWidth="827" pageHeight="1169" math="0" shadow="0">
      <root>
        <mxCell id="0" />
        <mxCell id="1" parent="0" />
        <mxCell id="isBvtHBVdiavnymILCRP-2" value="&lt;div style=&quot;line-height: 140%;&quot;&gt;&lt;br&gt;&lt;/div&gt;" style="html=1;dropTarget=0;whiteSpace=wrap;" parent="1" vertex="1">
          <mxGeometry x="40" y="50" width="720" height="640" as="geometry" />
        </mxCell>
        <mxCell id="isBvtHBVdiavnymILCRP-3" value="" style="shape=module;jettyWidth=8;jettyHeight=4;" parent="isBvtHBVdiavnymILCRP-2" vertex="1">
          <mxGeometry x="1" width="20" height="20" relative="1" as="geometry">
            <mxPoint x="-27" y="7" as="offset" />
          </mxGeometry>
        </mxCell>
        <mxCell id="isBvtHBVdiavnymILCRP-4" value="Система приложения кофейни" style="text;html=1;align=center;verticalAlign=middle;resizable=0;points=[];autosize=1;strokeColor=none;fillColor=none;" parent="1" vertex="1">
          <mxGeometry x="300" y="50" width="200" height="30" as="geometry" />
        </mxCell>
        <mxCell id="isBvtHBVdiavnymILCRP-5" value="Учет товаров" style="html=1;dropTarget=0;whiteSpace=wrap;" parent="1" vertex="1">
          <mxGeometry x="110" y="170" width="130" height="50" as="geometry" />
        </mxCell>
        <mxCell id="isBvtHBVdiavnymILCRP-6" value="" style="shape=module;jettyWidth=8;jettyHeight=4;" parent="isBvtHBVdiavnymILCRP-5" vertex="1">
          <mxGeometry x="1" width="20" height="20" relative="1" as="geometry">
            <mxPoint x="-27" y="7" as="offset" />
          </mxGeometry>
        </mxCell>
        <mxCell id="isBvtHBVdiavnymILCRP-7" value="Приложение" style="html=1;dropTarget=0;whiteSpace=wrap;" parent="1" vertex="1">
          <mxGeometry x="570" y="400" width="130" height="50" as="geometry" />
        </mxCell>
        <mxCell id="isBvtHBVdiavnymILCRP-8" value="" style="shape=module;jettyWidth=8;jettyHeight=4;" parent="isBvtHBVdiavnymILCRP-7" vertex="1">
          <mxGeometry x="1" width="20" height="20" relative="1" as="geometry">
            <mxPoint x="-27" y="7" as="offset" />
          </mxGeometry>
        </mxCell>
        <mxCell id="isBvtHBVdiavnymILCRP-9" value="" style="rounded=0;orthogonalLoop=1;jettySize=auto;html=1;endArrow=halfCircle;endFill=0;endSize=6;strokeWidth=1;sketch=0;fontSize=12;curved=1;exitX=1;exitY=0.5;exitDx=0;exitDy=0;" parent="1" source="isBvtHBVdiavnymILCRP-7" edge="1">
          <mxGeometry relative="1" as="geometry">
            <mxPoint x="735" y="505" as="sourcePoint" />
            <mxPoint x="730" y="470" as="targetPoint" />
          </mxGeometry>
        </mxCell>
        <mxCell id="isBvtHBVdiavnymILCRP-10" value="" style="ellipse;whiteSpace=wrap;html=1;align=center;aspect=fixed;fillColor=none;strokeColor=none;resizable=0;perimeter=centerPerimeter;rotatable=0;allowArrows=0;points=[];outlineConnect=1;" parent="1" vertex="1">
          <mxGeometry x="710" y="500" width="10" height="10" as="geometry" />
        </mxCell>
        <mxCell id="isBvtHBVdiavnymILCRP-11" value="" style="rounded=0;whiteSpace=wrap;html=1;" parent="1" vertex="1">
          <mxGeometry x="750" y="500" width="20" height="20" as="geometry" />
        </mxCell>
        <mxCell id="isBvtHBVdiavnymILCRP-12" value="" style="html=1;verticalAlign=bottom;endArrow=open;dashed=1;endSize=8;curved=0;rounded=0;entryX=0;entryY=0.25;entryDx=0;entryDy=0;" parent="1" target="isBvtHBVdiavnymILCRP-11" edge="1">
          <mxGeometry relative="1" as="geometry">
            <mxPoint x="730" y="470" as="sourcePoint" />
            <mxPoint x="560" y="340" as="targetPoint" />
          </mxGeometry>
        </mxCell>
        <mxCell id="isBvtHBVdiavnymILCRP-13" value="" style="shape=providedRequiredInterface;html=1;verticalLabelPosition=bottom;sketch=0;rotation=-145;" parent="1" vertex="1">
          <mxGeometry x="780" y="530" width="20" height="20" as="geometry" />
        </mxCell>
        <mxCell id="isBvtHBVdiavnymILCRP-16" value="" style="endArrow=none;html=1;rounded=0;entryX=1;entryY=1;entryDx=0;entryDy=0;exitX=1;exitY=0.5;exitDx=0;exitDy=0;exitPerimeter=0;" parent="1" source="isBvtHBVdiavnymILCRP-13" target="isBvtHBVdiavnymILCRP-11" edge="1">
          <mxGeometry width="50" height="50" relative="1" as="geometry">
            <mxPoint x="570" y="360" as="sourcePoint" />
            <mxPoint x="620" y="310" as="targetPoint" />
          </mxGeometry>
        </mxCell>
        <mxCell id="isBvtHBVdiavnymILCRP-17" value="API&amp;nbsp;&lt;div&gt;авторизации&lt;/div&gt;" style="text;html=1;align=center;verticalAlign=middle;resizable=0;points=[];autosize=1;strokeColor=none;fillColor=none;" parent="1" vertex="1">
          <mxGeometry x="795" y="523" width="90" height="40" as="geometry" />
        </mxCell>
        <mxCell id="isBvtHBVdiavnymILCRP-18" value="&lt;font style=&quot;font-size: 9px;&quot;&gt;API&amp;nbsp;&lt;/font&gt;&lt;div&gt;&lt;font style=&quot;font-size: 9px;&quot;&gt;авторизации&lt;/font&gt;&lt;/div&gt;" style="text;html=1;align=center;verticalAlign=middle;resizable=0;points=[];autosize=1;strokeColor=none;fillColor=none;" parent="1" vertex="1">
          <mxGeometry x="660" y="450" width="80" height="40" as="geometry" />
        </mxCell>
        <mxCell id="isBvtHBVdiavnymILCRP-19" value="&lt;font style=&quot;font-size: 9px;&quot;&gt;&amp;lt;&amp;lt;deligate&amp;gt;&amp;gt;&lt;/font&gt;" style="text;html=1;align=center;verticalAlign=middle;resizable=0;points=[];autosize=1;strokeColor=none;fillColor=none;" parent="1" vertex="1">
          <mxGeometry x="660" y="490" width="80" height="30" as="geometry" />
        </mxCell>
        <mxCell id="isBvtHBVdiavnymILCRP-20" value="Управление продажами" style="html=1;dropTarget=0;whiteSpace=wrap;" parent="1" vertex="1">
          <mxGeometry x="175" y="390" width="130" height="50" as="geometry" />
        </mxCell>
        <mxCell id="isBvtHBVdiavnymILCRP-21" value="" style="shape=module;jettyWidth=8;jettyHeight=4;" parent="isBvtHBVdiavnymILCRP-20" vertex="1">
          <mxGeometry x="1" width="20" height="20" relative="1" as="geometry">
            <mxPoint x="-27" y="7" as="offset" />
          </mxGeometry>
        </mxCell>
        <mxCell id="isBvtHBVdiavnymILCRP-22" value="" style="shape=providedRequiredInterface;html=1;verticalLabelPosition=bottom;sketch=0;rotation=-170;" parent="1" vertex="1">
          <mxGeometry x="413.9972848064004" y="414.9972848064004" width="20" height="20" as="geometry" />
        </mxCell>
        <mxCell id="isBvtHBVdiavnymILCRP-23" value="" style="endArrow=none;html=1;rounded=0;entryX=0;entryY=0.5;entryDx=0;entryDy=0;exitX=0;exitY=0.5;exitDx=0;exitDy=0;entryPerimeter=0;" parent="1" source="isBvtHBVdiavnymILCRP-7" target="isBvtHBVdiavnymILCRP-22" edge="1">
          <mxGeometry width="50" height="50" relative="1" as="geometry">
            <mxPoint x="532" y="564" as="sourcePoint" />
            <mxPoint x="520" y="550" as="targetPoint" />
          </mxGeometry>
        </mxCell>
        <mxCell id="isBvtHBVdiavnymILCRP-24" value="" style="endArrow=none;html=1;rounded=0;entryX=1;entryY=0.5;entryDx=0;entryDy=0;exitX=1;exitY=0.5;exitDx=0;exitDy=0;exitPerimeter=0;" parent="1" source="isBvtHBVdiavnymILCRP-22" target="isBvtHBVdiavnymILCRP-20" edge="1">
          <mxGeometry width="50" height="50" relative="1" as="geometry">
            <mxPoint x="596" y="480" as="sourcePoint" />
            <mxPoint x="460" y="482" as="targetPoint" />
          </mxGeometry>
        </mxCell>
        <mxCell id="isBvtHBVdiavnymILCRP-25" value="Управление &lt;br&gt;клиентской базой" style="text;html=1;align=center;verticalAlign=middle;resizable=0;points=[];autosize=1;strokeColor=none;fillColor=none;" parent="1" vertex="1">
          <mxGeometry x="364" y="435" width="120" height="40" as="geometry" />
        </mxCell>
        <mxCell id="isBvtHBVdiavnymILCRP-26" value="Платежный&amp;nbsp;&lt;div&gt;шлюз&lt;/div&gt;" style="html=1;dropTarget=0;whiteSpace=wrap;" parent="1" vertex="1">
          <mxGeometry x="335" y="560" width="130" height="50" as="geometry" />
        </mxCell>
        <mxCell id="isBvtHBVdiavnymILCRP-27" value="" style="shape=module;jettyWidth=8;jettyHeight=4;" parent="isBvtHBVdiavnymILCRP-26" vertex="1">
          <mxGeometry x="1" width="20" height="20" relative="1" as="geometry">
            <mxPoint x="-27" y="7" as="offset" />
          </mxGeometry>
        </mxCell>
        <mxCell id="isBvtHBVdiavnymILCRP-28" value="" style="shape=providedRequiredInterface;html=1;verticalLabelPosition=bottom;sketch=0;rotation=50;" parent="1" vertex="1">
          <mxGeometry x="304.99728480640033" y="494.9972848064004" width="20" height="20" as="geometry" />
        </mxCell>
        <mxCell id="isBvtHBVdiavnymILCRP-30" value="" style="endArrow=none;html=1;rounded=0;entryX=0.554;entryY=0.99;entryDx=0;entryDy=0;exitX=0;exitY=0.5;exitDx=0;exitDy=0;exitPerimeter=0;entryPerimeter=0;" parent="1" source="isBvtHBVdiavnymILCRP-28" target="isBvtHBVdiavnymILCRP-20" edge="1">
          <mxGeometry width="50" height="50" relative="1" as="geometry">
            <mxPoint x="489" y="508" as="sourcePoint" />
            <mxPoint x="380" y="500" as="targetPoint" />
          </mxGeometry>
        </mxCell>
        <mxCell id="isBvtHBVdiavnymILCRP-31" value="" style="endArrow=none;html=1;rounded=0;entryX=1;entryY=0.5;entryDx=0;entryDy=0;exitX=0.25;exitY=0;exitDx=0;exitDy=0;entryPerimeter=0;" parent="1" source="isBvtHBVdiavnymILCRP-26" target="isBvtHBVdiavnymILCRP-28" edge="1">
          <mxGeometry width="50" height="50" relative="1" as="geometry">
            <mxPoint x="462" y="577" as="sourcePoint" />
            <mxPoint x="400" y="520" as="targetPoint" />
          </mxGeometry>
        </mxCell>
        <mxCell id="isBvtHBVdiavnymILCRP-32" value="Обработка&lt;br&gt;&amp;nbsp;платежей" style="text;html=1;align=center;verticalAlign=middle;resizable=0;points=[];autosize=1;strokeColor=none;fillColor=none;" parent="1" vertex="1">
          <mxGeometry x="230" y="495" width="80" height="40" as="geometry" />
        </mxCell>
        <mxCell id="isBvtHBVdiavnymILCRP-33" value="" style="shape=providedRequiredInterface;html=1;verticalLabelPosition=bottom;sketch=0;rotation=-100;" parent="1" vertex="1">
          <mxGeometry x="189.99832052805516" y="299.99832052805516" width="20" height="20" as="geometry" />
        </mxCell>
        <mxCell id="isBvtHBVdiavnymILCRP-34" value="" style="endArrow=none;html=1;rounded=0;entryX=0.5;entryY=1;entryDx=0;entryDy=0;" parent="1" source="isBvtHBVdiavnymILCRP-33" target="isBvtHBVdiavnymILCRP-5" edge="1">
          <mxGeometry width="50" height="50" relative="1" as="geometry">
            <mxPoint x="842" y="337" as="sourcePoint" />
            <mxPoint x="780" y="280" as="targetPoint" />
          </mxGeometry>
        </mxCell>
        <mxCell id="isBvtHBVdiavnymILCRP-35" value="" style="endArrow=none;html=1;rounded=0;entryX=0;entryY=0.5;entryDx=0;entryDy=0;entryPerimeter=0;exitX=0.362;exitY=0.023;exitDx=0;exitDy=0;exitPerimeter=0;" parent="1" source="isBvtHBVdiavnymILCRP-20" target="isBvtHBVdiavnymILCRP-33" edge="1">
          <mxGeometry width="50" height="50" relative="1" as="geometry">
            <mxPoint x="272" y="370" as="sourcePoint" />
            <mxPoint x="250" y="290" as="targetPoint" />
          </mxGeometry>
        </mxCell>
        <mxCell id="isBvtHBVdiavnymILCRP-36" value="Проверка наличии&lt;br&gt;товара" style="text;html=1;align=center;verticalAlign=middle;resizable=0;points=[];autosize=1;strokeColor=none;fillColor=none;" parent="1" vertex="1">
          <mxGeometry x="70" y="290" width="130" height="40" as="geometry" />
        </mxCell>
        <mxCell id="isBvtHBVdiavnymILCRP-37" value="Генерация&amp;nbsp;&lt;div&gt;отчетов&lt;/div&gt;" style="html=1;dropTarget=0;whiteSpace=wrap;" parent="1" vertex="1">
          <mxGeometry x="335" y="250" width="130" height="50" as="geometry" />
        </mxCell>
        <mxCell id="isBvtHBVdiavnymILCRP-38" value="" style="shape=module;jettyWidth=8;jettyHeight=4;" parent="isBvtHBVdiavnymILCRP-37" vertex="1">
          <mxGeometry x="1" width="20" height="20" relative="1" as="geometry">
            <mxPoint x="-27" y="7" as="offset" />
          </mxGeometry>
        </mxCell>
        <mxCell id="isBvtHBVdiavnymILCRP-39" value="" style="shape=providedRequiredInterface;html=1;verticalLabelPosition=bottom;sketch=0;rotation=30;" parent="1" vertex="1">
          <mxGeometry x="285.0045593067914" y="210.00455930679138" width="20" height="20" as="geometry" />
        </mxCell>
        <mxCell id="isBvtHBVdiavnymILCRP-40" value="" style="endArrow=none;html=1;rounded=0;entryX=1;entryY=0.5;entryDx=0;entryDy=0;exitX=0;exitY=0.5;exitDx=0;exitDy=0;exitPerimeter=0;" parent="1" source="isBvtHBVdiavnymILCRP-39" target="isBvtHBVdiavnymILCRP-5" edge="1">
          <mxGeometry width="50" height="50" relative="1" as="geometry">
            <mxPoint x="202" y="340" as="sourcePoint" />
            <mxPoint x="180" y="260" as="targetPoint" />
          </mxGeometry>
        </mxCell>
        <mxCell id="isBvtHBVdiavnymILCRP-41" value="" style="endArrow=none;html=1;rounded=0;entryX=0;entryY=0;entryDx=0;entryDy=0;exitX=1;exitY=0.5;exitDx=0;exitDy=0;exitPerimeter=0;" parent="1" source="isBvtHBVdiavnymILCRP-39" target="isBvtHBVdiavnymILCRP-37" edge="1">
          <mxGeometry width="50" height="50" relative="1" as="geometry">
            <mxPoint x="310" y="230" as="sourcePoint" />
            <mxPoint x="260" y="200" as="targetPoint" />
          </mxGeometry>
        </mxCell>
        <mxCell id="isBvtHBVdiavnymILCRP-42" value="Отчеты по &lt;br&gt;инвентарю" style="text;html=1;align=center;verticalAlign=middle;resizable=0;points=[];autosize=1;strokeColor=none;fillColor=none;" parent="1" vertex="1">
          <mxGeometry x="310" y="180" width="80" height="40" as="geometry" />
        </mxCell>
        <mxCell id="isBvtHBVdiavnymILCRP-43" value="" style="rounded=0;orthogonalLoop=1;jettySize=auto;html=1;endArrow=halfCircle;endFill=0;endSize=6;strokeWidth=1;sketch=0;fontSize=12;curved=1;exitX=0.75;exitY=0;exitDx=0;exitDy=0;entryX=-0.007;entryY=0.428;entryDx=0;entryDy=0;entryPerimeter=0;" parent="1" source="isBvtHBVdiavnymILCRP-37" target="isBvtHBVdiavnymILCRP-45" edge="1">
          <mxGeometry relative="1" as="geometry">
            <mxPoint x="585" y="165" as="sourcePoint" />
            <mxPoint x="460" y="220" as="targetPoint" />
          </mxGeometry>
        </mxCell>
        <mxCell id="isBvtHBVdiavnymILCRP-44" value="" style="ellipse;whiteSpace=wrap;html=1;align=center;aspect=fixed;fillColor=none;strokeColor=none;resizable=0;perimeter=centerPerimeter;rotatable=0;allowArrows=0;points=[];outlineConnect=1;" parent="1" vertex="1">
          <mxGeometry x="560" y="160" width="10" height="10" as="geometry" />
        </mxCell>
        <mxCell id="isBvtHBVdiavnymILCRP-45" value="&lt;font style=&quot;font-size: 9px;&quot;&gt;API Отчетов&lt;/font&gt;" style="text;html=1;align=center;verticalAlign=middle;resizable=0;points=[];autosize=1;strokeColor=none;fillColor=none;" parent="1" vertex="1">
          <mxGeometry x="510" y="140" width="70" height="30" as="geometry" />
        </mxCell>
        <mxCell id="isBvtHBVdiavnymILCRP-46" value="" style="rounded=0;whiteSpace=wrap;html=1;" parent="1" vertex="1">
          <mxGeometry x="570" y="30" width="20" height="20" as="geometry" />
        </mxCell>
        <mxCell id="isBvtHBVdiavnymILCRP-48" value="&lt;font style=&quot;font-size: 9px;&quot;&gt;&amp;lt;&amp;lt;deligate&amp;gt;&amp;gt;&lt;/font&gt;" style="text;html=1;align=center;verticalAlign=middle;resizable=0;points=[];autosize=1;strokeColor=none;fillColor=none;" parent="1" vertex="1">
          <mxGeometry x="440" y="120" width="80" height="30" as="geometry" />
        </mxCell>
        <mxCell id="isBvtHBVdiavnymILCRP-49" value="" style="html=1;verticalAlign=bottom;endArrow=open;dashed=1;endSize=8;curved=0;rounded=0;exitX=0.875;exitY=1;exitDx=0;exitDy=0;exitPerimeter=0;" parent="1" source="isBvtHBVdiavnymILCRP-48" edge="1">
          <mxGeometry relative="1" as="geometry">
            <mxPoint x="510" y="160" as="sourcePoint" />
            <mxPoint x="570" y="50" as="targetPoint" />
          </mxGeometry>
        </mxCell>
        <mxCell id="isBvtHBVdiavnymILCRP-51" value="" style="shape=providedRequiredInterface;html=1;verticalLabelPosition=bottom;sketch=0;rotation=120;" parent="1" vertex="1">
          <mxGeometry x="609.9972848064003" y="-20.002715193599556" width="20" height="20" as="geometry" />
        </mxCell>
        <mxCell id="isBvtHBVdiavnymILCRP-52" value="" style="endArrow=none;html=1;rounded=0;entryX=1;entryY=0.5;entryDx=0;entryDy=0;exitX=1;exitY=0;exitDx=0;exitDy=0;entryPerimeter=0;" parent="1" source="isBvtHBVdiavnymILCRP-46" target="isBvtHBVdiavnymILCRP-51" edge="1">
          <mxGeometry width="50" height="50" relative="1" as="geometry">
            <mxPoint x="310" y="230" as="sourcePoint" />
            <mxPoint x="341" y="255" as="targetPoint" />
          </mxGeometry>
        </mxCell>
        <mxCell id="isBvtHBVdiavnymILCRP-53" value="&lt;font style=&quot;font-size: 9px;&quot;&gt;API Отчетов&lt;/font&gt;" style="text;html=1;align=center;verticalAlign=middle;resizable=0;points=[];autosize=1;strokeColor=none;fillColor=none;" parent="1" vertex="1">
          <mxGeometry x="530" y="-20" width="70" height="30" as="geometry" />
        </mxCell>
        <mxCell id="isBvtHBVdiavnymILCRP-54" value="" style="shape=providedRequiredInterface;html=1;verticalLabelPosition=bottom;sketch=0;rotation=-45;" parent="1" vertex="1">
          <mxGeometry x="324.9945593067914" y="340.0045593067914" width="20" height="20" as="geometry" />
        </mxCell>
        <mxCell id="isBvtHBVdiavnymILCRP-55" value="" style="endArrow=none;html=1;rounded=0;entryX=0;entryY=0.5;entryDx=0;entryDy=0;entryPerimeter=0;exitX=1;exitY=0;exitDx=0;exitDy=0;" parent="1" source="isBvtHBVdiavnymILCRP-20" target="isBvtHBVdiavnymILCRP-54" edge="1">
          <mxGeometry width="50" height="50" relative="1" as="geometry">
            <mxPoint x="230" y="421" as="sourcePoint" />
            <mxPoint x="210" y="350" as="targetPoint" />
          </mxGeometry>
        </mxCell>
        <mxCell id="isBvtHBVdiavnymILCRP-57" value="" style="endArrow=none;html=1;rounded=0;entryX=1;entryY=0.5;entryDx=0;entryDy=0;entryPerimeter=0;" parent="1" target="isBvtHBVdiavnymILCRP-54" edge="1">
          <mxGeometry width="50" height="50" relative="1" as="geometry">
            <mxPoint x="370" y="300" as="sourcePoint" />
            <mxPoint x="333" y="370" as="targetPoint" />
          </mxGeometry>
        </mxCell>
        <mxCell id="isBvtHBVdiavnymILCRP-58" value="Отчеты по&lt;br&gt;продажам" style="text;html=1;align=center;verticalAlign=middle;resizable=0;points=[];autosize=1;strokeColor=none;fillColor=none;" parent="1" vertex="1">
          <mxGeometry x="344.99" y="330" width="80" height="40" as="geometry" />
        </mxCell>
        <mxCell id="isBvtHBVdiavnymILCRP-59" value="" style="ellipse;whiteSpace=wrap;html=1;align=center;aspect=fixed;fillColor=none;strokeColor=none;resizable=0;perimeter=centerPerimeter;rotatable=0;allowArrows=0;points=[];outlineConnect=1;" parent="1" vertex="1">
          <mxGeometry x="-120" y="480.0029692314439" width="10" height="10" as="geometry" />
        </mxCell>
        <mxCell id="isBvtHBVdiavnymILCRP-61" value="" style="rounded=0;whiteSpace=wrap;html=1;" parent="1" vertex="1">
          <mxGeometry x="30" y="425.0029692314439" width="20" height="20" as="geometry" />
        </mxCell>
        <mxCell id="isBvtHBVdiavnymILCRP-62" value="" style="html=1;verticalAlign=bottom;endArrow=open;dashed=1;endSize=8;curved=0;rounded=0;entryX=1;entryY=0.5;entryDx=0;entryDy=0;" parent="1" target="isBvtHBVdiavnymILCRP-61" edge="1">
          <mxGeometry relative="1" as="geometry">
            <mxPoint x="110" y="430" as="sourcePoint" />
            <mxPoint x="-110" y="370.0029692314439" as="targetPoint" />
          </mxGeometry>
        </mxCell>
        <mxCell id="isBvtHBVdiavnymILCRP-66" value="" style="rounded=0;orthogonalLoop=1;jettySize=auto;html=1;endArrow=halfCircle;endFill=0;endSize=6;strokeWidth=1;sketch=0;fontSize=12;curved=1;exitX=0;exitY=0.5;exitDx=0;exitDy=0;" parent="1" source="isBvtHBVdiavnymILCRP-61" target="isBvtHBVdiavnymILCRP-67" edge="1">
          <mxGeometry relative="1" as="geometry">
            <mxPoint x="-10" y="435" as="sourcePoint" />
          </mxGeometry>
        </mxCell>
        <mxCell id="isBvtHBVdiavnymILCRP-67" value="" style="ellipse;whiteSpace=wrap;html=1;align=center;aspect=fixed;fillColor=none;strokeColor=none;resizable=0;perimeter=centerPerimeter;rotatable=0;allowArrows=0;points=[];outlineConnect=1;" parent="1" vertex="1">
          <mxGeometry x="-70" y="430" width="10" height="10" as="geometry" />
        </mxCell>
        <mxCell id="isBvtHBVdiavnymILCRP-68" value="&lt;font style=&quot;font-size: 9px;&quot;&gt;&amp;lt;&amp;lt;deligate&amp;gt;&amp;gt;&lt;/font&gt;" style="text;html=1;align=center;verticalAlign=middle;resizable=0;points=[];autosize=1;strokeColor=none;fillColor=none;" parent="1" vertex="1">
          <mxGeometry x="60" y="395" width="80" height="30" as="geometry" />
        </mxCell>
        <mxCell id="isBvtHBVdiavnymILCRP-69" value="Выдача заказа" style="text;html=1;align=center;verticalAlign=middle;resizable=0;points=[];autosize=1;strokeColor=none;fillColor=none;" parent="1" vertex="1">
          <mxGeometry x="-170" y="420" width="110" height="30" as="geometry" />
        </mxCell>
        <mxCell id="isBvtHBVdiavnymILCRP-71" value="" style="rounded=0;orthogonalLoop=1;jettySize=auto;html=1;endArrow=halfCircle;endFill=0;endSize=6;strokeWidth=1;sketch=0;fontSize=12;curved=1;exitX=0.5;exitY=1;exitDx=0;exitDy=0;" parent="1" source="isBvtHBVdiavnymILCRP-26" edge="1">
          <mxGeometry relative="1" as="geometry">
            <mxPoint x="399" y="640" as="sourcePoint" />
            <mxPoint x="410" y="640" as="targetPoint" />
          </mxGeometry>
        </mxCell>
        <mxCell id="isBvtHBVdiavnymILCRP-72" value="" style="ellipse;whiteSpace=wrap;html=1;align=center;aspect=fixed;fillColor=none;strokeColor=none;resizable=0;perimeter=centerPerimeter;rotatable=0;allowArrows=0;points=[];outlineConnect=1;" parent="1" vertex="1">
          <mxGeometry x="490" y="833" width="10" height="10" as="geometry" />
        </mxCell>
        <mxCell id="isBvtHBVdiavnymILCRP-73" value="" style="rounded=0;whiteSpace=wrap;html=1;" parent="1" vertex="1">
          <mxGeometry x="414" y="680" width="16" height="20" as="geometry" />
        </mxCell>
        <mxCell id="isBvtHBVdiavnymILCRP-74" value="" style="html=1;verticalAlign=bottom;endArrow=open;dashed=1;endSize=8;curved=0;rounded=0;entryX=0.25;entryY=0;entryDx=0;entryDy=0;" parent="1" target="isBvtHBVdiavnymILCRP-73" edge="1">
          <mxGeometry relative="1" as="geometry">
            <mxPoint x="410" y="640" as="sourcePoint" />
            <mxPoint x="340" y="673" as="targetPoint" />
          </mxGeometry>
        </mxCell>
        <mxCell id="isBvtHBVdiavnymILCRP-75" value="" style="shape=providedRequiredInterface;html=1;verticalLabelPosition=bottom;sketch=0;rotation=-105;" parent="1" vertex="1">
          <mxGeometry x="420" y="730" width="20" height="20" as="geometry" />
        </mxCell>
        <mxCell id="isBvtHBVdiavnymILCRP-77" value="&lt;font style=&quot;font-size: 9px;&quot;&gt;API&amp;nbsp;&lt;/font&gt;&lt;div&gt;&lt;font style=&quot;font-size: 9px;&quot;&gt;транзакций&lt;/font&gt;&lt;/div&gt;" style="text;html=1;align=center;verticalAlign=middle;resizable=0;points=[];autosize=1;strokeColor=none;fillColor=none;" parent="1" vertex="1">
          <mxGeometry x="425" y="620" width="70" height="40" as="geometry" />
        </mxCell>
        <mxCell id="isBvtHBVdiavnymILCRP-78" value="&lt;font style=&quot;font-size: 9px;&quot;&gt;&amp;lt;&amp;lt;deligate&amp;gt;&amp;gt;&lt;/font&gt;" style="text;html=1;align=center;verticalAlign=middle;resizable=0;points=[];autosize=1;strokeColor=none;fillColor=none;" parent="1" vertex="1">
          <mxGeometry x="320" y="610" width="80" height="30" as="geometry" />
        </mxCell>
        <mxCell id="isBvtHBVdiavnymILCRP-80" value="" style="endArrow=none;html=1;rounded=0;entryX=0.5;entryY=1;entryDx=0;entryDy=0;exitX=1;exitY=0.5;exitDx=0;exitDy=0;exitPerimeter=0;" parent="1" source="isBvtHBVdiavnymILCRP-75" target="isBvtHBVdiavnymILCRP-73" edge="1">
          <mxGeometry width="50" height="50" relative="1" as="geometry">
            <mxPoint x="387" y="577" as="sourcePoint" />
            <mxPoint x="340" y="530" as="targetPoint" />
          </mxGeometry>
        </mxCell>
        <mxCell id="isBvtHBVdiavnymILCRP-81" value="&lt;font style=&quot;font-size: 9px;&quot;&gt;API&amp;nbsp;&lt;/font&gt;&lt;div&gt;&lt;font style=&quot;font-size: 9px;&quot;&gt;транзакций&lt;/font&gt;&lt;/div&gt;" style="text;html=1;align=center;verticalAlign=middle;resizable=0;points=[];autosize=1;strokeColor=none;fillColor=none;" parent="1" vertex="1">
          <mxGeometry x="434" y="710" width="70" height="40" as="geometry" />
        </mxCell>
        <mxCell id="isBvtHBVdiavnymILCRP-82" value="&amp;lt;&amp;lt;ApplicationServer&amp;gt;&amp;gt;&lt;br&gt;АдминистраторКофейни" style="verticalAlign=top;align=center;spacingTop=8;spacingLeft=2;spacingRight=12;shape=cube;size=10;direction=south;fontStyle=4;html=1;whiteSpace=wrap;" parent="1" vertex="1">
          <mxGeometry x="22.5" y="910" width="377.5" height="810" as="geometry" />
        </mxCell>
        <mxCell id="isBvtHBVdiavnymILCRP-83" value="Сотрудники" style="html=1;dropTarget=0;whiteSpace=wrap;" parent="1" vertex="1">
          <mxGeometry x="50" y="1190" width="155" height="90" as="geometry" />
        </mxCell>
        <mxCell id="isBvtHBVdiavnymILCRP-84" value="" style="shape=module;jettyWidth=8;jettyHeight=4;" parent="isBvtHBVdiavnymILCRP-83" vertex="1">
          <mxGeometry x="1" width="20" height="20" relative="1" as="geometry">
            <mxPoint x="-27" y="7" as="offset" />
          </mxGeometry>
        </mxCell>
        <mxCell id="isBvtHBVdiavnymILCRP-87" value="Поставщики" style="html=1;dropTarget=0;whiteSpace=wrap;" parent="1" vertex="1">
          <mxGeometry x="50" y="1410" width="155" height="90" as="geometry" />
        </mxCell>
        <mxCell id="isBvtHBVdiavnymILCRP-88" value="" style="shape=module;jettyWidth=8;jettyHeight=4;" parent="isBvtHBVdiavnymILCRP-87" vertex="1">
          <mxGeometry x="1" width="20" height="20" relative="1" as="geometry">
            <mxPoint x="-27" y="7" as="offset" />
          </mxGeometry>
        </mxCell>
        <mxCell id="isBvtHBVdiavnymILCRP-89" value="Аккаунты" style="html=1;dropTarget=0;whiteSpace=wrap;" parent="1" vertex="1">
          <mxGeometry x="50" y="1300" width="155" height="90" as="geometry" />
        </mxCell>
        <mxCell id="isBvtHBVdiavnymILCRP-90" value="" style="shape=module;jettyWidth=8;jettyHeight=4;" parent="isBvtHBVdiavnymILCRP-89" vertex="1">
          <mxGeometry x="1" width="20" height="20" relative="1" as="geometry">
            <mxPoint x="-27" y="7" as="offset" />
          </mxGeometry>
        </mxCell>
        <mxCell id="isBvtHBVdiavnymILCRP-91" value="Backround Processors" style="shape=umlFrame;whiteSpace=wrap;html=1;pointerEvents=0;width=135;height=30;" parent="1" vertex="1">
          <mxGeometry x="50" y="1020" width="310" height="150" as="geometry" />
        </mxCell>
        <mxCell id="isBvtHBVdiavnymILCRP-96" value="&amp;lt;&amp;lt;artifact&amp;gt;&amp;gt;&lt;br&gt;инвентарь.war&lt;span style=&quot;color: rgba(0, 0, 0, 0); font-family: monospace; font-size: 0px; text-align: start; text-wrap-mode: nowrap;&quot;&gt;%3CmxGraphModel%3E%3Croot%3E%3CmxCell%20id%3D%220%22%2F%3E%3CmxCell%20id%3D%221%22%20parent%3D%220%22%2F%3E%3CmxCell%20id%3D%222%22%20value%3D%22%D0%9F%D0%BE%D1%81%D1%82%D0%B0%D0%B2%D1%89%D0%B8%D0%BA%D0%B8%22%20style%3D%22html%3D1%3BdropTarget%3D0%3BwhiteSpace%3Dwrap%3B%22%20vertex%3D%221%22%20parent%3D%221%22%3E%3CmxGeometry%20x%3D%2270%22%20y%3D%221370%22%20width%3D%22155%22%20height%3D%2290%22%20as%3D%22geometry%22%2F%3E%3C%2FmxCell%3E%3CmxCell%20id%3D%223%22%20value%3D%22%22%20style%3D%22shape%3Dmodule%3BjettyWidth%3D8%3BjettyHeight%3D4%3B%22%20vertex%3D%221%22%20parent%3D%222%22%3E%3CmxGeometry%20x%3D%221%22%20width%3D%2220%22%20height%3D%2220%22%20relative%3D%221%22%20as%3D%22geometry%22%3E%3CmxPoint%20x%3D%22-27%22%20y%3D%227%22%20as%3D%22offset%22%2F%3E%3C%2FmxGeometry%3E%3C%2FmxCell%3E%3C%2Froot%3E%3C%2FmxGraphModel%3E&lt;/span&gt;" style="rounded=0;whiteSpace=wrap;html=1;" parent="1" vertex="1">
          <mxGeometry x="60" y="1070" width="120" height="60" as="geometry" />
        </mxCell>
        <mxCell id="isBvtHBVdiavnymILCRP-100" value="" style="shape=note;whiteSpace=wrap;html=1;backgroundOutline=1;darkOpacity=0.05;size=10;" parent="1" vertex="1">
          <mxGeometry x="155" y="1075" width="20" height="20" as="geometry" />
        </mxCell>
        <mxCell id="isBvtHBVdiavnymILCRP-107" value="Обработка &lt;br&gt;платежей" style="rounded=0;whiteSpace=wrap;html=1;" parent="1" vertex="1">
          <mxGeometry x="210" y="1605" width="120" height="60" as="geometry" />
        </mxCell>
        <mxCell id="isBvtHBVdiavnymILCRP-108" value="" style="shape=note;whiteSpace=wrap;html=1;backgroundOutline=1;darkOpacity=0.05;size=10;" parent="1" vertex="1">
          <mxGeometry x="305" y="1610" width="20" height="20" as="geometry" />
        </mxCell>
        <mxCell id="isBvtHBVdiavnymILCRP-109" value="&amp;lt;&amp;lt;artifact&amp;gt;&amp;gt;&lt;br&gt;&lt;div style=&quot;text-align: center;&quot;&gt;&lt;span style=&quot;text-align: start; background-color: transparent;&quot;&gt;Платежный шлюз.jar&lt;/span&gt;&lt;span style=&quot;color: light-dark(rgba(0, 0, 0, 0), rgb(237, 237, 237)); font-family: monospace; font-size: 0px; text-align: start; text-wrap-mode: nowrap; background-color: transparent;&quot;&gt;3CmxGraphModel%3E%3Croot%3E%3CmxCell%20id%3D%220%22%2F%3E%3CmxCell%20id%3D%221%22%20parent%3D%220%22%2F%3E%3CmxCell%20id%3D%222%22%20value%3D%22%D0%9F%D0%BE%D1%81%D1%82%D0%B0%D0%B2%D1%89%D0%B8%D0%BA%D0%B8%22%20style%3D%22html%3D1%3BdropTarget%3D0%3BwhiteSpace%3Dwrap%3B%22%20vertex%3D%221%22%20parent%3D%221%22%3E%3CmxGeometry%20x%3D%2270%22%20y%3D%221370%22%20width%3D%22155%22%20height%3D%2290%22%20as%3D%22geometry%22%2F%3E%3C%2FmxCell%3E%3CmxCell%20id%3D%223%22%20value%3D%22%22%20style%3D%22shape%3Dmodule%3BjettyWidth%3D8%3BjettyHeight%3D4%3B%22%20vertex%3D%221%22%20parent%3D%222%22%3E%3CmxGeometry%20x%3D%221%22%20width%3D%2220%22%20height%3D%2220%22%20relative%3D%221%22%20as%3D%22geometry%22%3E%3CmxPoint%20x%3D%22-27%22%20y%3D%227%22%20as%3D%22offset%22%2F%3E%3C%2FmxGeometry%3E%3C%2FmxCell%3E%3C%2Froot%3E%3C%2FmxGraphModel%3E&lt;/span&gt;&lt;/div&gt;" style="rounded=0;whiteSpace=wrap;html=1;" parent="1" vertex="1">
          <mxGeometry x="210" y="1070" width="120" height="60" as="geometry" />
        </mxCell>
        <mxCell id="isBvtHBVdiavnymILCRP-110" value="" style="shape=note;whiteSpace=wrap;html=1;backgroundOutline=1;darkOpacity=0.05;size=10;" parent="1" vertex="1">
          <mxGeometry x="305" y="1075" width="20" height="20" as="geometry" />
        </mxCell>
        <mxCell id="isBvtHBVdiavnymILCRP-111" value="ClientDevice" style="verticalAlign=top;align=left;spacingTop=8;spacingLeft=2;spacingRight=12;shape=cube;size=10;direction=south;fontStyle=4;html=1;whiteSpace=wrap;" parent="1" vertex="1">
          <mxGeometry x="-340" y="1090" width="180" height="120" as="geometry" />
        </mxCell>
        <mxCell id="isBvtHBVdiavnymILCRP-112" value="продажи.exe" style="shape=module;align=left;spacingLeft=20;align=center;verticalAlign=top;whiteSpace=wrap;html=1;" parent="1" vertex="1">
          <mxGeometry x="-310" y="1140" width="100" height="50" as="geometry" />
        </mxCell>
        <mxCell id="isBvtHBVdiavnymILCRP-113" value="MessageBrocker" style="verticalAlign=top;align=left;spacingTop=8;spacingLeft=2;spacingRight=12;shape=cube;size=10;direction=south;fontStyle=4;html=1;whiteSpace=wrap;" parent="1" vertex="1">
          <mxGeometry x="-250" y="900" width="180" height="120" as="geometry" />
        </mxCell>
        <mxCell id="isBvtHBVdiavnymILCRP-114" value="Генерация отчетности" style="html=1;whiteSpace=wrap;" parent="1" vertex="1">
          <mxGeometry x="-220" y="950" width="110" height="50" as="geometry" />
        </mxCell>
        <mxCell id="isBvtHBVdiavnymILCRP-115" value="" style="html=1;verticalAlign=bottom;endArrow=open;dashed=1;endSize=8;curved=0;rounded=0;exitX=0;exitY=0;exitDx=0;exitDy=85;exitPerimeter=0;entryX=0;entryY=0;entryDx=120;entryDy=95;entryPerimeter=0;" parent="1" source="isBvtHBVdiavnymILCRP-111" target="isBvtHBVdiavnymILCRP-113" edge="1">
          <mxGeometry relative="1" as="geometry">
            <mxPoint x="-230" y="1260" as="sourcePoint" />
            <mxPoint x="-310" y="1260" as="targetPoint" />
          </mxGeometry>
        </mxCell>
        <mxCell id="isBvtHBVdiavnymILCRP-116" value="Очередь на отчет" style="text;html=1;align=center;verticalAlign=middle;resizable=0;points=[];autosize=1;strokeColor=none;fillColor=none;" parent="1" vertex="1">
          <mxGeometry x="-320" y="1040" width="120" height="30" as="geometry" />
        </mxCell>
        <mxCell id="isBvtHBVdiavnymILCRP-117" value="" style="html=1;verticalAlign=bottom;endArrow=open;dashed=1;endSize=8;curved=0;rounded=0;exitX=0.75;exitY=0;exitDx=0;exitDy=0;entryX=0.75;entryY=1;entryDx=0;entryDy=0;" parent="1" source="isBvtHBVdiavnymILCRP-112" target="isBvtHBVdiavnymILCRP-114" edge="1">
          <mxGeometry relative="1" as="geometry">
            <mxPoint x="-180" y="1100" as="sourcePoint" />
            <mxPoint x="-100" y="1030" as="targetPoint" />
          </mxGeometry>
        </mxCell>
        <mxCell id="isBvtHBVdiavnymILCRP-118" value="Docker Container" style="shape=umlFrame;whiteSpace=wrap;html=1;pointerEvents=0;width=135;height=30;" parent="1" vertex="1">
          <mxGeometry x="50" y="1540" width="310" height="150" as="geometry" />
        </mxCell>
        <mxCell id="isBvtHBVdiavnymILCRP-119" value="WebServer" style="verticalAlign=top;align=left;spacingTop=8;spacingLeft=2;spacingRight=12;shape=cube;size=10;direction=south;fontStyle=4;html=1;whiteSpace=wrap;" parent="1" vertex="1">
          <mxGeometry x="-350" y="1270" width="180" height="140" as="geometry" />
        </mxCell>
        <mxCell id="isBvtHBVdiavnymILCRP-121" value="&amp;lt;&amp;lt;artifact&amp;gt;&amp;gt;&lt;br&gt;&lt;div style=&quot;text-align: center;&quot;&gt;&lt;span style=&quot;text-align: start; background-color: transparent;&quot;&gt;Продажи.jar&lt;/span&gt;&lt;span style=&quot;color: light-dark(rgba(0, 0, 0, 0), rgb(237, 237, 237)); font-family: monospace; font-size: 0px; text-align: start; text-wrap-mode: nowrap; background-color: transparent;&quot;&gt;3CmxGraphModel%3E%3Croot%3E%3CmxCell%20id%3D%220%22%2F%3E%3CmxCell%20id%3D%221%22%20parent%3D%220%22%2F%3E%3CmxCell%20id%3D%222%22%20value%3D%22%D0%9F%D0%BE%D1%81%D1%82%D0%B0%D0%B2%D1%89%D0%B8%D0%BA%D0%B8%22%20style%3D%22html%3D1%3BdropTarget%3D0%3BwhiteSpace%3Dwrap%3B%22%20vertex%3D%221%22%20parent%3D%221%22%3E%3CmxGeometry%20x%3D%2270%22%20y%3D%221370%22%20width%3D%22155%22%20height%3D%2290%22%20as%3D%22geometry%22%2F%3E%3C%2FmxCell%3E%3CmxCell%20id%3D%223%22%20value%3D%22%22%20style%3D%22shape%3Dmodule%3BjettyWidth%3D8%3BjettyHeight%3D4%3B%22%20vertex%3D%221%22%20parent%3D%222%22%3E%3CmxGeometry%20x%3D%221%22%20width%3D%2220%22%20height%3D%2220%22%20relative%3D%221%22%20as%3D%22geometry%22%3E%3CmxPoint%20x%3D%22-27%22%20y%3D%227%22%20as%3D%22offset%22%2F%3E%3C%2FmxGeometry%3E%3C%2FmxCell%3E%3C%2Froot%3E%3C%2FmxGraphModel%3E&lt;/span&gt;&lt;/div&gt;" style="rounded=0;whiteSpace=wrap;html=1;" parent="1" vertex="1">
          <mxGeometry x="70" y="1605" width="120" height="60" as="geometry" />
        </mxCell>
        <mxCell id="isBvtHBVdiavnymILCRP-122" value="" style="shape=note;whiteSpace=wrap;html=1;backgroundOutline=1;darkOpacity=0.05;size=10;" parent="1" vertex="1">
          <mxGeometry x="166" y="1609" width="20" height="20" as="geometry" />
        </mxCell>
        <mxCell id="isBvtHBVdiavnymILCRP-123" value="&amp;lt;&amp;lt;artifact&amp;gt;&amp;gt;&lt;br&gt;&lt;div style=&quot;text-align: center;&quot;&gt;&lt;span style=&quot;text-align: start; background-color: transparent;&quot;&gt;sales.jar&lt;/span&gt;&lt;span style=&quot;color: light-dark(rgba(0, 0, 0, 0), rgb(237, 237, 237)); font-family: monospace; font-size: 0px; text-align: start; text-wrap-mode: nowrap; background-color: transparent;&quot;&gt;3CmxGraphModel%3E%3Croot%3E%3CmxCell%20id%3D%220%22%2F%3E%3CmxCell%20id%3D%221%22%20parent%3D%220%22%2F%3E%3CmxCell%20id%3D%222%22%20value%3D%22%D0%9F%D0%BE%D1%81%D1%82%D0%B0%D0%B2%D1%89%D0%B8%D0%BA%D0%B8%22%20style%3D%22html%3D1%3BdropTarget%3D0%3BwhiteSpace%3Dwrap%3B%22%20vertex%3D%221%22%20parent%3D%221%22%3E%3CmxGeometry%20x%3D%2270%22%20y%3D%221370%22%20width%3D%22155%22%20height%3D%2290%22%20as%3D%22geometry%22%2F%3E%3C%2FmxCell%3E%3CmxCell%20id%3D%223%22%20value%3D%22%22%20style%3D%22shape%3Dmodule%3BjettyWidth%3D8%3BjettyHeight%3D4%3B%22%20vertex%3D%221%22%20parent%3D%222%22%3E%3CmxGeometry%20x%3D%221%22%20width%3D%2220%22%20height%3D%2220%22%20relative%3D%221%22%20as%3D%22geometry%22%3E%3CmxPoint%20x%3D%22-27%22%20y%3D%227%22%20as%3D%22offset%22%2F%3E%3C%2FmxGeometry%3E%3C%2FmxCell%3E%3C%2Froot%3E%3C%2FmxGraphModel%3E&lt;/span&gt;&lt;/div&gt;" style="rounded=0;whiteSpace=wrap;html=1;" parent="1" vertex="1">
          <mxGeometry x="-330" y="1340" width="120" height="60" as="geometry" />
        </mxCell>
        <mxCell id="isBvtHBVdiavnymILCRP-124" value="" style="shape=note;whiteSpace=wrap;html=1;backgroundOutline=1;darkOpacity=0.05;size=10;" parent="1" vertex="1">
          <mxGeometry x="-234" y="1344" width="20" height="20" as="geometry" />
        </mxCell>
        <mxCell id="isBvtHBVdiavnymILCRP-125" value="OS = Linux" style="text;html=1;align=center;verticalAlign=middle;resizable=0;points=[];autosize=1;strokeColor=none;fillColor=none;" parent="1" vertex="1">
          <mxGeometry x="-340" y="1314" width="80" height="30" as="geometry" />
        </mxCell>
        <mxCell id="isBvtHBVdiavnymILCRP-126" value="Web server = Coffee" style="text;html=1;align=center;verticalAlign=middle;resizable=0;points=[];autosize=1;strokeColor=none;fillColor=none;" parent="1" vertex="1">
          <mxGeometry x="-340" y="1300" width="130" height="30" as="geometry" />
        </mxCell>
        <mxCell id="isBvtHBVdiavnymILCRP-127" value="" style="endArrow=none;html=1;rounded=0;entryX=0.713;entryY=0.99;entryDx=0;entryDy=0;entryPerimeter=0;exitX=0;exitY=0;exitDx=65;exitDy=0;exitPerimeter=0;" parent="1" source="isBvtHBVdiavnymILCRP-119" target="isBvtHBVdiavnymILCRP-82" edge="1">
          <mxGeometry width="50" height="50" relative="1" as="geometry">
            <mxPoint x="-190" y="1500" as="sourcePoint" />
            <mxPoint x="-140" y="1450" as="targetPoint" />
          </mxGeometry>
        </mxCell>
        <mxCell id="isBvtHBVdiavnymILCRP-128" value="http 7777" style="text;html=1;align=center;verticalAlign=middle;resizable=0;points=[];autosize=1;strokeColor=none;fillColor=none;rotation=30;" parent="1" vertex="1">
          <mxGeometry x="-120" y="1355" width="70" height="30" as="geometry" />
        </mxCell>
        <mxCell id="isBvtHBVdiavnymILCRP-129" value="" style="endArrow=none;html=1;rounded=0;entryX=0;entryY=0;entryDx=120;entryDy=95;entryPerimeter=0;exitX=0;exitY=0;exitDx=0;exitDy=85;exitPerimeter=0;" parent="1" source="isBvtHBVdiavnymILCRP-119" target="isBvtHBVdiavnymILCRP-111" edge="1">
          <mxGeometry width="50" height="50" relative="1" as="geometry">
            <mxPoint x="-70" y="1440" as="sourcePoint" />
            <mxPoint x="126" y="1593" as="targetPoint" />
          </mxGeometry>
        </mxCell>
        <mxCell id="isBvtHBVdiavnymILCRP-130" value="httm/coffee" style="text;html=1;align=center;verticalAlign=middle;resizable=0;points=[];autosize=1;strokeColor=none;fillColor=none;" parent="1" vertex="1">
          <mxGeometry x="-260" y="1228" width="80" height="30" as="geometry" />
        </mxCell>
        <mxCell id="82BvCX4g08b_FAZOCzuP-1" value="" style="rounded=0;orthogonalLoop=1;jettySize=auto;html=1;endArrow=halfCircle;endFill=0;endSize=6;strokeWidth=1;sketch=0;fontSize=12;curved=1;exitX=0;exitY=0.75;exitDx=0;exitDy=0;" edge="1" parent="1" source="isBvtHBVdiavnymILCRP-20">
          <mxGeometry relative="1" as="geometry">
            <mxPoint x="400" y="620" as="sourcePoint" />
            <mxPoint x="100" y="430" as="targetPoint" />
          </mxGeometry>
        </mxCell>
      </root>
    </mxGraphModel>
  </diagram>
</mxfile>
